# xmcd
#
# Track frame offsets: 
#        150
#        24883
#        54170
#        80234
#        110964
#
# Disc length: 1899 seconds
#
# Revision: 1
# Processed by: cddbd v1.5.1PL2 Copyright (c) Steve Scherf et al.
# Submitted via: ExactAudioCopy v0.95b3
#
DISCID=39076905
DTITLE=Phil Woods - Moonlight in Vermont [CD 2)
DYEAR=2005
DGENRE=Jazz
TTITLE0=Please Say Yes
TTITLE1=Maud´s Mood
TTITLE2=Hard Sock Dance
TTITLE3=Alison
TTITLE4=Tipsy
EXTD=YEAR: 2005
EXTT0=
EXTT1=
EXTT2=
EXTT3=
EXTT4=
PLAYORDER=
